<?xml version="1.0" encoding="utf-8"?>
<!-- Generator: Adobe Illustrator 16.0.0, SVG Export Plug-In . SVG Version: 6.00 Build 0)  -->
<!DOCTYPE svg PUBLIC "-//W3C//DTD SVG 1.1//EN" "http://www.w3.org/Graphics/SVG/1.1/DTD/svg11.dtd">
<svg version="1.1" id="Layer_1" xmlns="http://www.w3.org/2000/svg" xmlns:xlink="http://www.w3.org/1999/xlink" x="0px" y="0px"
	 width="24px" height="24px" viewBox="0 0 24 24" enable-background="new 0 0 24 24" xml:space="preserve">
<g>
	<path fill="#B4B4B4" d="M11.966,0.699L1.332,4.441l1.68,13.932l8.965,4.928l9.011-4.994l1.68-13.932L11.966,0.699z"/>
	<path fill="#A51E22" d="M21.607,5.18l-9.667-3.296v20.24l8.101-4.482L21.607,5.18L21.607,5.18z"/>
	<path fill="#DC2226" d="M2.525,5.24l1.44,12.459l7.976,4.424V1.883L2.525,5.24L2.525,5.24z"/>
	<path fill="#F3F3F3" d="M14.602,12.658l-2.661,1.245H9.137l-1.318,3.299l-2.452,0.043l6.575-14.625L14.602,12.658L14.602,12.658z
		 M14.345,12.032l-2.386-4.723l-1.958,4.642h1.939L14.345,12.032L14.345,12.032z"/>
	<path fill="#B4B4B4" d="M11.941,2.619l0.018,4.69l2.221,4.646h-2.234L11.941,13.9l3.088,0.002l1.443,3.344l2.346,0.043
		L11.941,2.619L11.941,2.619z"/>
</g>
</svg>
