<?xml version="1.0" encoding="utf-8"?>
<!-- Generator: Adobe Illustrator 16.0.0, SVG Export Plug-In . SVG Version: 6.00 Build 0)  -->
<!DOCTYPE svg PUBLIC "-//W3C//DTD SVG 1.1//EN" "http://www.w3.org/Graphics/SVG/1.1/DTD/svg11.dtd">
<svg version="1.1" id="Layer_1" xmlns="http://www.w3.org/2000/svg" xmlns:xlink="http://www.w3.org/1999/xlink" x="0px" y="0px"
	 width="24px" height="24px" viewBox="0 0 24 24" enable-background="new 0 0 24 24" xml:space="preserve">
<path d="M16.398,14.767h-0.926l-0.328-0.315c1.148-1.337,1.84-3.07,1.84-4.957c0-4.206-3.41-7.615-7.615-7.615
	c-4.206,0-7.615,3.409-7.615,7.615s3.409,7.615,7.615,7.615c1.886,0,3.62-0.69,4.957-1.839l0.314,0.328v0.926l5.857,5.846
	l1.746-1.746L16.398,14.767z M9.369,14.767c-2.917,0-5.271-2.354-5.271-5.272c0-2.917,2.354-5.271,5.271-5.271
	c2.917,0,5.271,2.354,5.271,5.271C14.641,12.412,12.287,14.767,9.369,14.767z"/>
</svg>
