<?xml version="1.0" encoding="utf-8"?>
<!-- Generator: Adobe Illustrator 16.0.0, SVG Export Plug-In . SVG Version: 6.00 Build 0)  -->
<!DOCTYPE svg PUBLIC "-//W3C//DTD SVG 1.1//EN" "http://www.w3.org/Graphics/SVG/1.1/DTD/svg11.dtd">
<svg version="1.1" id="Layer_1" xmlns="http://www.w3.org/2000/svg" xmlns:xlink="http://www.w3.org/1999/xlink" x="0px" y="0px"
	 width="24px" height="24px" viewBox="0 0 24 24" enable-background="new 0 0 24 24" xml:space="preserve">
<g>
	<path fill="#E0A32D" d="M15.025,2.547c-0.328-1.009-1.412-1.561-2.421-1.233c-1.009,0.328-1.561,1.412-1.233,2.42l4.966,15.28
		c0.342,0.943,1.359,1.471,2.336,1.189c1.02-0.293,1.641-1.375,1.316-2.375L15.025,2.547"/>
	<path fill="#3BB188" d="M7.329,5.047c-0.327-1.009-1.411-1.561-2.42-1.233C3.9,4.142,3.348,5.225,3.676,6.235l4.966,15.281
		c0.341,0.943,1.359,1.471,2.336,1.189c1.02-0.293,1.641-1.375,1.316-2.379L7.329,5.047"/>
	<path fill="#CE215C" d="M21.275,15.201c1.01-0.328,1.562-1.41,1.232-2.419c-0.326-1.01-1.41-1.562-2.418-1.234L4.808,16.514
		c-0.942,0.342-1.471,1.361-1.19,2.338c0.293,1.02,1.377,1.641,2.378,1.316L21.275,15.201"/>
	<path fill="#392538" d="M7.994,19.518l3.652-1.188l-1.187-3.65l-3.652,1.188L7.994,19.518"/>
	<path fill="#BC262A" d="M15.689,17.018c1.379-0.449,2.664-0.867,3.652-1.188l-1.188-3.653l-3.652,1.188L15.689,17.018"/>
	<path fill="#74C5CD" d="M18.775,7.507c1.01-0.328,1.561-1.412,1.234-2.421c-0.33-1.008-1.412-1.56-2.42-1.232L2.308,8.819
		c-0.942,0.341-1.472,1.358-1.19,2.336c0.293,1.019,1.376,1.642,2.377,1.316L18.775,7.507"/>
	<path fill="#278D74" d="M5.492,11.823c0.995-0.324,2.277-0.741,3.653-1.188C8.697,9.254,8.279,7.971,7.958,6.983L4.306,8.17
		L5.492,11.823"/>
	<path fill="#63813A" d="M13.188,9.322l3.652-1.187c-0.396-1.218-0.791-2.435-1.186-3.653L12,5.669L13.188,9.322"/>
</g>
</svg>
