<?xml version="1.0" encoding="utf-8"?>
<!-- Generator: Adobe Illustrator 16.0.0, SVG Export Plug-In . SVG Version: 6.00 Build 0)  -->
<!DOCTYPE svg PUBLIC "-//W3C//DTD SVG 1.1//EN" "http://www.w3.org/Graphics/SVG/1.1/DTD/svg11.dtd">
<svg version="1.1" id="Layer_1" xmlns="http://www.w3.org/2000/svg" xmlns:xlink="http://www.w3.org/1999/xlink" x="0px" y="0px"
	 width="24px" height="24px" viewBox="0 0 24 24" enable-background="new 0 0 24 24" xml:space="preserve">
<g>
	<g transform="translate(-539.18 -568.86)">
		<path fill="#439CD6" d="M547.469,589.989c7.549,0,11.678-6.254,11.678-11.677c0-0.177-0.004-0.354-0.012-0.53
			c0.801-0.579,1.497-1.302,2.047-2.125c-0.735,0.327-1.526,0.547-2.356,0.646c0.847-0.508,1.497-1.312,1.805-2.27
			c-0.793,0.47-1.672,0.812-2.606,0.996c-0.749-0.798-1.814-1.297-2.996-1.297c-2.266,0-4.104,1.838-4.104,4.104
			c0,0.322,0.036,0.635,0.106,0.936c-3.411-0.171-6.436-1.805-8.46-4.288c-0.353,0.606-0.556,1.311-0.556,2.063
			c0,1.424,0.725,2.681,1.826,3.416c-0.673-0.021-1.306-0.206-1.858-0.513c-0.001,0.017-0.001,0.034-0.001,0.052
			c0,1.988,1.415,3.647,3.293,4.023c-0.345,0.095-0.708,0.145-1.083,0.145c-0.264,0-0.521-0.025-0.771-0.074
			c0.523,1.631,2.038,2.818,3.834,2.851c-1.404,1.102-3.174,1.757-5.097,1.757c-0.331,0-0.658-0.019-0.979-0.057
			C542.994,589.309,545.151,589.989,547.469,589.989"/>
	</g>
</g>
</svg>
